<svg width="122" height="26" viewBox="0 0 122 26" fill="none" xmlns="http://www.w3.org/2000/svg">
<path d="M3.36074 19.5817L15.5198 21.9162L16.4644 20.2858L5.65641 15.6159L3.36074 19.5817ZM8.99358 9.85108L18.4513 16.8584L19.396 15.2272L11.29 5.88463L8.99431 9.85108H8.99358ZM6.16836 14.7343L16.9764 19.4056L17.9394 17.7392L8.48164 10.7327L6.16836 14.7343ZM14.3807 0.543701L11.8283 4.95902L19.9351 14.3031L21.1365 12.2318L14.3807 0.543701ZM0.278809 24.9138H13.7888L14.9895 22.8425L2.83119 20.508L0.278809 24.9138ZM21.7181 19.4584L24.8792 24.9138H28.4731L21.7181 13.2359L14.9631 24.9138H18.5569L21.7181 19.4584Z" fill="#FCAF17"/>
<path d="M50.4682 12.0664H55.617L56.8 9.97757H50.4689L50.4682 12.0664ZM50.4682 6.26636V8.3552H57.7366L58.9461 6.26636H50.4682ZM87.7865 22.1526V15.9829H85.5077V25.4758H87.4154L92.8986 19.2621V25.4758H95.1767V15.9829H93.1641L87.7865 22.1526ZM63.8645 2.57347L58.4077 12.0664H61.0921L64.686 5.79915L68.3063 12.0664H71.1322L65.6754 2.57347H63.8645ZM47.4677 9.97684L42.0109 0.47583H40.1479L34.6904 9.97684H33.3218V14.8513H35.4935V12.0657H46.6638V14.8513H48.8363V9.97684H47.4677ZM37.41 9.97684L41.0039 3.70151L44.6241 9.97684H37.41ZM121.94 2.57347H111.335V4.66232H120.721L121.94 2.57347ZM61.065 2.57347H50.4689V4.66232H59.8555L61.065 2.57347ZM105.419 15.9829L100.042 22.1526V15.9829H97.7636V25.4758H99.6793L105.154 19.2621V25.4758H107.433V15.9829H105.419ZM80.6421 19.6758H75.6532V15.9829H73.3744V25.4758H75.6532V21.7646H80.6421V25.4758H82.9201V15.9829H80.6421V19.6758ZM52.9245 15.9829L47.4677 25.4758H50.1609L53.7548 19.2086L57.375 25.4758H60.1922L54.7346 15.9829H52.9245ZM102.213 5.97665H98.7522V2.56541H96.4742V12.0664H102.196C103.741 12.0664 105.348 11.212 105.348 8.97276C105.339 6.02945 103.273 5.97665 102.213 5.97665ZM102.081 10.0575H98.7434V7.94227H102.081C102.469 7.94227 103.061 8.04788 103.061 8.99989C103.061 9.88076 102.576 10.0575 102.081 10.0575ZM108.757 2.57347H106.505V12.0752H108.757V2.57347ZM76.8722 2.34391C73.0656 2.34391 71.265 4.67112 71.265 7.27117C71.265 9.98564 73.0216 12.1977 76.8722 12.1977C78.5495 12.1977 82.4346 11.4225 82.4346 7.27117C82.4346 4.5567 80.6956 2.34391 76.8722 2.34391ZM76.8458 10.1089C74.6469 10.1089 73.7198 8.8488 73.7198 7.29757C73.7198 5.59599 74.7789 4.45915 76.8458 4.45915C79.1766 4.45915 79.971 5.59599 79.971 7.29757C79.971 9.33361 78.4439 10.1089 76.8458 10.1089ZM111.335 12.0664H116.483L117.675 9.97757H111.335V12.0664ZM111.335 6.26636V8.3552H118.602L119.82 6.26636H111.335ZM63.3973 22.0998V15.9829H61.1193V25.4758H63.0358L68.519 19.3149V25.4758H70.797V15.9829H68.8813L63.3973 22.0998ZM92.3772 6.46952C92.9771 6.21355 93.4898 5.79989 93.4898 4.76793C93.4898 2.80231 91.8381 2.57347 90.6726 2.57347H84.5183V12.0752H90.779C93.6482 12.0752 94.2401 10.4976 94.2401 9.05197C94.2489 7.42153 93.3218 6.75116 92.3772 6.46952ZM86.77 4.58311H90.4167C90.9638 4.58311 91.1934 4.86548 91.1934 5.41189C91.1934 5.97591 90.8318 6.26636 90.4167 6.26636H86.77V4.58311ZM90.779 10.0568H86.77V8.02075H90.779C91.4229 8.02075 91.8916 8.17917 91.8916 9.02556C91.8916 9.6952 91.6085 10.0568 90.779 10.0568Z" fill="black"/>
</svg>
