<svg width="101" height="26" viewBox="0 0 101 26" fill="none" xmlns="http://www.w3.org/2000/svg">
<path fill-rule="evenodd" clip-rule="evenodd" d="M101 1.09337C101 1.09337 99.1262 0.868652 96.9122 0.868652C94.7547 0.868652 92.9375 1.09337 92.9375 1.09337V8.11585H101V1.09337Z" fill="#E4003E"/>
<path fill-rule="evenodd" clip-rule="evenodd" d="M101 17.6665H92.9375V24.8013C92.9375 24.8013 95.209 25.026 97.0253 25.026C98.8425 25.026 101 24.7451 101 24.7451V17.6665Z" fill="#E4003E"/>
<path fill-rule="evenodd" clip-rule="evenodd" d="M88.1108 1.09375H78.1745L71.2478 9.68926H68.0114V1.09375H59.438V24.8578H68.0114V15.9252H71.1342L78.1179 24.8578H88.7356L78.3451 12.2173L88.1108 1.09375Z" fill="#242265"/>
<path fill-rule="evenodd" clip-rule="evenodd" d="M27.3017 1.09375H0.21875V24.8578H8.90577V7.83532H18.6147V24.8578H27.3017V1.09375Z" fill="#242265"/>
<path fill-rule="evenodd" clip-rule="evenodd" d="M31.5035 7.38594L30.2544 1.09381C30.2544 1.09381 38.3736 0.47583 43.4268 0.47583C48.48 0.47583 54.5553 1.09381 54.5553 1.09381C54.5553 1.09381 56.429 5.92527 56.429 12.7231C56.429 19.5207 54.4985 24.8579 54.4985 24.8579C54.4985 24.8579 48.7072 25.4758 43.3701 25.4758C38.0329 25.4758 30.2544 24.8579 30.2544 24.8579L31.5035 18.5657C31.5035 18.5657 36.9542 18.959 41.6099 18.959C46.2657 18.959 48.0826 18.5657 48.0826 18.5657C48.0826 18.5657 48.3097 17.386 48.4233 16.0376H37.2948V9.97025H48.48C48.3665 8.39721 48.1394 7.44212 48.1394 7.44212C48.1394 7.44212 44.3352 7.04886 41.0989 7.04886C37.8058 6.99268 31.5035 7.38594 31.5035 7.38594Z" fill="#242265"/>
</svg>
