<svg width="88" height="26" viewBox="0 0 88 26" fill="none" xmlns="http://www.w3.org/2000/svg">
<g clip-path="url(#clip0_443_5132)">
<path fill-rule="evenodd" clip-rule="evenodd" d="M13.7886 19.0554H9.99397C4.07436 19.0554 8.37495 6.42331 13.3585 6.42331H19.3541C20.3153 6.42331 22.0103 6.60125 22.8451 4.21206L24.1353 0.501221H15.9136C11.4613 0.501221 7.99546 2.07706 5.49103 4.72039C1.16515 9.24454 -0.3021 16.3104 0.735099 19.6908C1.7217 22.817 4.40324 24.8758 8.6026 24.9267L11.866 24.952H15.8883L16.8749 21.9783C17.6085 19.8688 15.9642 19.0554 13.7886 19.0554ZM59.9819 13.8195L61.2213 9.77833H47.9908C45.7899 9.77833 44.8033 10.3883 44.4239 11.6591L43.1843 15.7004H56.4149C58.6157 15.7004 59.6024 15.0904 59.9819 13.8195ZM41.2111 20.9363L39.9715 24.9775H53.2021C55.3777 24.9775 56.3896 24.3675 56.7691 23.0967L58.0086 19.0554H44.7781C42.6025 19.0554 41.6158 19.6654 41.2111 20.9363ZM63.068 4.56789L64.3079 0.526637H51.0771C48.8763 0.526637 47.8896 1.13664 47.5102 2.40747L46.2706 6.44873H59.5012C61.677 6.44873 62.6632 5.83873 63.068 4.56789ZM43.0831 5.38123C42.5265 1.61956 40.528 0.526637 35.6709 0.526637H26.8168L21.6562 15.7004H24.9195C26.8674 15.7004 27.854 15.7258 28.8912 12.93L31.0415 6.42331H34.3302C37.1382 6.42331 36.5058 9.95625 35.0891 13.3875C33.8242 16.412 31.6233 19.0808 28.9671 19.0808H23.4776C21.2767 19.0808 20.2648 19.6908 19.86 20.9617L18.4939 25.0029H22.5162L26.4627 24.9775C29.9537 24.952 32.8123 24.6979 36.1516 21.6733C39.6932 18.4454 43.7914 10.1595 43.0831 5.38123ZM87.5563 0.501221H79.8912L72.6813 8.20247C71.8462 9.09204 70.9862 9.98162 70.1511 11.0238H70.0753L73.6675 0.501221H67.4195L58.9952 24.9775H65.2438L67.925 17.2763L70.7077 14.9125L72.9089 21.8767C73.5916 24.037 74.3005 24.9775 75.8183 24.9775H80.5995L75.6915 11.3033L87.5563 0.501221Z" fill="#00B33C"/>
</g>
<defs>
<clipPath id="clip0_443_5132">
<rect width="88" height="25" fill="white" transform="translate(0 0.47583)"/>
</clipPath>
</defs>
</svg>
