<svg width="79" height="26" viewBox="0 0 79 26" fill="none" xmlns="http://www.w3.org/2000/svg">
<g clip-path="url(#clip0_532_577)">
<path fill-rule="evenodd" clip-rule="evenodd" d="M16.73 9.99951C21.3758 14.9549 23.6134 20.3348 21.7323 22.0972C19.8226 23.8864 14.3915 21.2701 9.60168 16.2536C9.46562 16.1111 9.33173 15.9682 9.19971 15.825C11.7023 13.7809 14.2244 12.0014 16.73 9.99951Z" fill="url(#paint0_linear_532_577)"/>
<path fill-rule="evenodd" clip-rule="evenodd" d="M13.0598 0.511719C16.8185 0.511719 20.1928 2.13981 22.505 4.72224C20.6011 6.76573 18.6707 8.4495 16.7305 9.99958C15.5558 10.938 14.3776 11.8274 13.1997 12.7182L13.0832 12.8064L13.0819 12.8074L12.9641 12.8964L12.8463 12.9856L12.8413 12.9894L12.7285 13.0748L12.6106 13.164L12.5995 13.1724L12.4929 13.2533L12.3751 13.3426L12.3577 13.3558L12.2573 13.4322L12.1396 13.5217L12.0287 13.6061L12.0218 13.6113L11.904 13.7011L11.8742 13.7238L11.7863 13.791L11.6686 13.8811C11.2369 14.2116 10.8055 14.5452 10.3744 14.8843L10.2569 14.977C10.0716 15.1232 9.88629 15.2704 9.70123 15.419L9.69819 15.4217C9.53202 15.555 9.36605 15.6894 9.20008 15.825C9.3321 15.9682 9.46599 16.1111 9.60205 16.2536C14.3808 21.2585 19.7974 23.8738 21.719 22.1092C19.4588 24.2213 16.4122 25.5163 13.0598 25.5163C6.08931 25.5163 0.438477 19.9189 0.438477 13.014C0.438477 6.10914 6.08931 0.511719 13.0598 0.511719Z" fill="url(#paint1_radial_532_577)"/>
<path fill-rule="evenodd" clip-rule="evenodd" d="M16.4468 10.2251C20.964 15.0565 23.1681 20.4131 21.5154 21.8749C19.8348 23.3615 14.6353 20.9118 9.9627 16.0181C9.81629 15.8647 9.67192 15.711 9.52979 15.5571C11.8296 13.7005 14.1445 12.0488 16.4468 10.2251Z" fill="url(#paint2_linear_532_577)"/>
<path fill-rule="evenodd" clip-rule="evenodd" d="M31.8577 5.60537C33.5745 5.14434 35.4884 5.32402 37.011 6.27432C36.9984 6.98087 36.9794 7.68891 37.0252 8.39532C36.0312 7.72948 34.843 7.27929 33.6265 7.37002C32.7855 7.39654 31.9272 7.7514 31.4223 8.43592C30.6602 9.33779 30.4456 10.5413 30.3398 11.6791C30.2499 13.0983 30.3209 14.5394 30.6475 15.9273C30.9126 17.0292 31.64 18.1264 32.7902 18.4547C34.2514 18.8438 35.8512 18.3905 37.0189 17.4699C36.9842 18.1842 37.0032 18.9001 37.0032 19.6144C35.146 20.746 32.6529 20.9773 30.739 19.8613C29.2716 19.0595 28.3706 17.5168 27.9951 15.9382C27.517 13.6672 27.5296 11.2446 28.3138 9.04394C28.8851 7.43562 30.1978 6.10083 31.8577 5.60537ZM38.6946 9.65823C41.5096 9.65506 44.326 9.64877 47.1425 9.66134C47.1409 13.2452 47.122 16.8307 47.152 20.4146C46.2873 20.3849 45.4211 20.4053 44.5564 20.4006C44.599 17.4793 44.5564 14.5565 44.5784 11.6338C43.4708 11.6572 42.3616 11.6557 41.2555 11.6354C41.2759 14.5581 41.2397 17.4825 41.2744 20.4068C40.4098 20.399 39.5435 20.3896 38.6804 20.4146C38.7152 16.8291 38.6883 13.2437 38.6946 9.65823ZM50.3298 9.65506C52.7771 9.65506 55.2228 9.65506 57.6701 9.65506C57.6827 13.2359 57.6432 16.8166 57.6905 20.3974C56.8243 20.41 55.9565 20.3833 55.0918 20.4146C55.1359 17.4872 55.0729 14.5581 55.1233 11.6307C54.2429 11.6588 53.3624 11.6572 52.4836 11.6307C52.471 12.9561 52.3873 14.28 52.3384 15.6038C52.2532 16.7713 52.2406 17.9779 51.7988 19.0829C51.5985 19.5565 51.3175 20.0426 50.8394 20.2865C50.1057 20.6522 49.2316 20.6568 48.4569 20.4224C48.4222 19.6925 48.449 18.9626 48.4348 18.2327C48.7378 18.3671 49.069 18.3765 49.3973 18.3844C49.9511 17.9576 49.9574 17.2183 50.0316 16.5869C50.1578 14.2784 50.2351 11.9667 50.3298 9.65506ZM59.8365 9.65975C60.6522 9.65036 61.4679 9.65664 62.2853 9.65506C62.2869 11.6869 62.2805 13.7188 62.2885 15.7523C62.29 16.0133 62.2647 16.2743 62.2222 16.5322C62.3231 16.2571 62.4541 15.9945 62.6103 15.7444C63.8316 13.7173 65.0165 11.6698 66.2457 9.64728C67.0015 9.66293 67.7605 9.65195 68.5179 9.65506C68.5195 13.239 68.5147 16.8229 68.521 20.4068C67.6848 20.3927 66.8484 20.4037 66.0138 20.4006C66.0816 18.1561 65.9712 15.907 66.0722 13.6641C64.7814 15.9257 63.4356 18.1545 62.1275 20.4053C61.3591 20.4006 60.5922 20.388 59.8254 20.4146C59.857 16.8307 59.8348 13.2452 59.8365 9.65975ZM69.9963 11.6369C70.0358 10.9742 70.0042 10.3115 70.0247 9.64877C72.8854 9.65975 75.7476 9.65975 78.6099 9.64877C78.6225 10.3146 78.6084 10.9821 78.6241 11.6478C77.6253 11.6385 76.6281 11.6667 75.6309 11.6323C75.6024 14.5565 75.6262 17.4841 75.6182 20.41C74.7646 20.3927 73.911 20.4006 73.059 20.4037C73.0479 17.4856 73.0574 14.5659 73.0542 11.6478C72.0333 11.6415 71.0141 11.6604 69.9963 11.6369Z" fill="black"/>
</g>
<defs>
<linearGradient id="paint0_linear_532_577" x1="13.9998" y1="14.1134" x2="19.2354" y2="21.6419" gradientUnits="userSpaceOnUse">
<stop stop-color="#63B479"/>
<stop offset="1" stop-color="#ABD5B1"/>
</linearGradient>
<radialGradient id="paint1_radial_532_577" cx="0" cy="0" r="1" gradientUnits="userSpaceOnUse" gradientTransform="translate(15.4437 4.26241) rotate(-90) scale(21.2533 18.7566)">
<stop stop-color="#4EB26E"/>
<stop offset="0.46" stop-color="#2F9958"/>
<stop offset="0.89" stop-color="#008241"/>
<stop offset="1" stop-color="#00944E"/>
</radialGradient>
<linearGradient id="paint2_linear_532_577" x1="13.8617" y1="13.5039" x2="18.2577" y2="21.7558" gradientUnits="userSpaceOnUse">
<stop stop-color="#E73B1F"/>
<stop offset="1" stop-color="#EC604A"/>
</linearGradient>
<clipPath id="clip0_532_577">
<rect width="79" height="25" fill="white" transform="translate(0 0.47583)"/>
</clipPath>
</defs>
</svg>
