<svg width="54" height="20" viewBox="0 0 54 20" fill="none" xmlns="http://www.w3.org/2000/svg">
<path d="M21.0738 10C21.0738 4.47715 16.554 0 10.9785 0C5.40309 0 0.883301 4.47715 0.883301 10C0.883301 15.5228 5.40309 20 10.9785 20C16.554 20 21.0738 15.5228 21.0738 10Z" fill="url(#paint0_linear_483_3727)"/>
<path d="M43.7881 0H10.9785C5.40309 0 0.883301 4.47715 0.883301 10C0.883301 15.5228 5.40309 20 10.9785 20H43.7881C49.3635 20 53.8833 15.5228 53.8833 10C53.8833 4.47715 49.3635 0 43.7881 0Z" fill="url(#paint1_linear_483_3727)"/>
<path fill-rule="evenodd" clip-rule="evenodd" d="M18.5506 10C18.5506 14.1422 15.1608 17.5 10.9791 17.5C6.79756 17.5 3.40771 14.1422 3.40771 10C3.40771 5.85787 6.79756 2.5 10.9791 2.5C11.7961 2.5 12.5829 2.62818 13.3201 2.86535L11.5944 8.125H6.55491L5.9391 10H10.9792L9.50282 14.5H11.585L13.0614 10H18.5506ZM18.3121 8.125H13.6766L15.1215 3.72099C16.6777 4.73039 17.8358 6.29212 18.3121 8.125Z" fill="white" fill-opacity="0.98"/>
<path d="M29.5209 4.5667L24.406 15.4667H22.7571L27.7711 4.95004H21.7476V3.5167H29.5209V4.5667ZM36.5034 15.4667H35.0396V12.6334H29.218V11.7L34.8545 3.5167H36.5034V11.2834H38.1355V12.6334H36.5034V15.4667ZM31.0184 11.2834H35.0396V5.45004L31.0184 11.2834ZM39.0945 7.5167C39.0945 6.88337 39.2067 6.31115 39.4311 5.80004C39.6554 5.28893 39.9611 4.85281 40.348 4.4917C40.735 4.13059 41.1949 3.85004 41.7277 3.65004C42.2605 3.45004 42.8354 3.35004 43.4523 3.35004C44.1478 3.35004 44.7647 3.47226 45.3031 3.7167C45.8415 3.96115 46.2958 4.31393 46.666 4.77504C47.0361 5.23615 47.3166 5.80004 47.5072 6.4667C47.6979 7.13337 47.7933 7.88337 47.7933 8.7167C47.7933 9.93893 47.6643 10.9861 47.4063 11.8584C47.1483 12.7306 46.7838 13.4473 46.3126 14.0084C45.8415 14.5695 45.2695 14.9806 44.5964 15.2417C43.9234 15.5028 43.1663 15.6334 42.325 15.6334C41.7754 15.6334 41.2959 15.5834 40.8864 15.4834C40.477 15.3834 40.1602 15.2556 39.9358 15.1V13.55C40.205 13.7723 40.5387 13.95 40.9369 14.0834C41.3351 14.2167 41.7866 14.2834 42.2914 14.2834C42.9307 14.2834 43.486 14.1778 43.9571 13.9667C44.4282 13.7556 44.8264 13.4611 45.1517 13.0834C45.477 12.7056 45.7294 12.2556 45.9088 11.7334C46.0883 11.2111 46.2061 10.6389 46.2622 10.0167C45.9144 10.5056 45.4602 10.8695 44.8993 11.1084C44.3385 11.3473 43.7384 11.4667 43.099 11.4667C42.5718 11.4667 42.067 11.3834 41.5847 11.2167C41.1024 11.05 40.6761 10.8 40.306 10.4667C39.9358 10.1334 39.6414 9.72226 39.4226 9.23337C39.2039 8.74448 39.0945 8.17226 39.0945 7.5167ZM43.4018 4.68337C43.0429 4.68337 42.7008 4.7417 42.3755 4.85837C42.0502 4.97504 41.7614 5.15004 41.509 5.38337C41.2566 5.6167 41.0575 5.90559 40.9117 6.25004C40.7659 6.59448 40.693 6.98893 40.693 7.43337C40.693 7.88893 40.7631 8.28615 40.9033 8.62504C41.0435 8.96393 41.237 9.24448 41.4837 9.4667C41.7305 9.68893 42.0109 9.85837 42.325 9.97504C42.6391 10.0917 42.9756 10.15 43.3345 10.15C43.7047 10.15 44.0524 10.0889 44.3777 9.9667C44.703 9.84448 44.9918 9.66948 45.2442 9.4417C45.4966 9.21393 45.6957 8.93337 45.8415 8.60004C45.9873 8.2667 46.0603 7.88893 46.0603 7.4667C46.0603 7.0667 45.9958 6.69726 45.8668 6.35837C45.7378 6.01948 45.5555 5.72504 45.3199 5.47504C45.0844 5.22504 44.804 5.03059 44.4787 4.8917C44.1534 4.75281 43.7944 4.68337 43.4018 4.68337Z" fill="white" fill-opacity="0.98"/>
<defs>
<linearGradient id="paint0_linear_483_3727" x1="0.883301" y1="0" x2="48.8357" y2="0" gradientUnits="userSpaceOnUse">
<stop stop-color="#FF5C4D"/>
<stop offset="0.4" stop-color="#EB469F"/>
<stop offset="1" stop-color="#8341EF"/>
</linearGradient>
<linearGradient id="paint1_linear_483_3727" x1="0.883301" y1="0" x2="48.8357" y2="0" gradientUnits="userSpaceOnUse">
<stop stop-color="#FF5C4D"/>
<stop offset="0.4" stop-color="#EB469F"/>
<stop offset="1" stop-color="#8341EF"/>
</linearGradient>
</defs>
</svg>
