<svg width="138" height="20" viewBox="0 0 138 20" fill="none" xmlns="http://www.w3.org/2000/svg">
<path d="M20.8829 10C20.8829 4.47715 16.4057 0 10.8828 0C5.35998 0 0.882812 4.47715 0.882812 10C0.882812 15.5228 5.35998 20 10.8828 20C16.4057 20 20.8829 15.5228 20.8829 10Z" fill="#121214"/>
<path d="M72.5503 0H10.8835C9.96299 0 9.2168 0.746192 9.2168 1.66667V18.3333C9.2168 19.2538 9.96299 20 10.8835 20H72.5503C73.4708 20 74.217 19.2538 74.217 18.3333V1.66667C74.217 0.746192 73.4708 0 72.5503 0Z" fill="#121214"/>
<path d="M13.0495 8.29162L12.9745 8.19162C16.5412 5.30829 16.1412 4.88329 16.1412 4.88329C15.3376 4.00702 14.3341 3.33802 13.2162 2.93329C11.8597 2.44988 10.3908 2.37703 8.9931 2.72385C7.59542 3.07068 6.33097 3.82179 5.35783 4.88329C4.09871 6.28548 3.40014 8.10231 3.39553 9.98685C3.39092 11.8714 4.08058 13.6916 5.33283 15.1C5.98404 15.8168 6.77124 16.3971 7.64867 16.807C8.5261 17.217 9.47627 17.4485 10.4439 17.488C11.4116 17.5276 12.3775 17.3744 13.2854 17.0374C14.1934 16.7004 15.0253 16.1863 15.7329 15.525L15.7829 15.4833L15.8329 15.4333L15.8495 15.4083C15.8951 15.367 15.9344 15.3193 15.9662 15.2666C16.8079 14.175 15.5495 11.1916 13.0495 8.29162ZM15.3329 14.7166C15.1412 14.9083 14.3495 14.9333 13.0662 14.2416C11.662 13.4134 10.392 12.3766 9.29951 11.1666C9.09117 11.3333 12.5829 8.52496 12.4245 8.66662C13.4452 9.82454 14.2929 11.1241 14.9412 12.525C15.5245 13.8833 15.4995 14.55 15.3412 14.7166H15.3329Z" fill="white" fill-opacity="0.98"/>
<path d="M23.5663 15.6334C22.9663 15.6334 22.3941 15.5584 21.8496 15.4084C21.3052 15.2584 20.8885 15.0612 20.5996 14.8168V13.1168C21.0218 13.5057 21.4913 13.7945 22.0079 13.9834C22.5246 14.1723 23.0385 14.2668 23.5496 14.2668C24.5385 14.2668 25.2996 14.0084 25.833 13.4918C26.3663 12.9751 26.633 12.3112 26.633 11.5001C26.633 11.1001 26.5663 10.7501 26.433 10.4501C26.2996 10.1501 26.1191 9.89454 25.8913 9.68343C25.6635 9.47232 25.3996 9.31399 25.0996 9.20843C24.7996 9.10288 24.4774 9.0501 24.133 9.0501C23.6552 9.0501 23.2385 9.13065 22.8829 9.29176C22.5274 9.45288 22.2774 9.61677 22.1329 9.78343H20.9329V3.51676H27.533V4.9501H22.2996V8.2501C22.5552 8.06121 22.8635 7.91399 23.2246 7.80843C23.5857 7.70288 24.0107 7.6501 24.4996 7.6501C25.0107 7.6501 25.4913 7.73343 25.9413 7.9001C26.3913 8.06676 26.7857 8.30843 27.1246 8.6251C27.4635 8.94177 27.7302 9.33899 27.9246 9.81676C28.1191 10.2945 28.2163 10.839 28.2163 11.4501C28.2163 12.0834 28.108 12.6584 27.8913 13.1751C27.6746 13.6918 27.3663 14.1307 26.9663 14.4918C26.5663 14.8529 26.0802 15.1334 25.508 15.3334C24.9357 15.5334 24.2885 15.6334 23.5663 15.6334ZM29.1663 7.51677C29.1663 6.88343 29.2774 6.31121 29.4996 5.8001C29.7219 5.28899 30.0246 4.85288 30.408 4.49176C30.7913 4.13065 31.2469 3.8501 31.7746 3.6501C32.3024 3.4501 32.8719 3.3501 33.483 3.3501C34.1719 3.3501 34.783 3.47232 35.3163 3.71676C35.8496 3.96121 36.2996 4.31399 36.6663 4.7751C37.033 5.23621 37.3108 5.8001 37.4997 6.46676C37.6885 7.13343 37.783 7.88343 37.783 8.71676C37.783 9.93899 37.6552 10.9862 37.3997 11.8584C37.1441 12.7307 36.783 13.4473 36.3163 14.0084C35.8496 14.5695 35.283 14.9807 34.6163 15.2418C33.9496 15.5029 33.1996 15.6334 32.3663 15.6334C31.8219 15.6334 31.3469 15.5834 30.9413 15.4834C30.5357 15.3834 30.2219 15.2557 29.9996 15.1001V13.5501C30.2663 13.7723 30.5969 13.9501 30.9913 14.0834C31.3857 14.2168 31.833 14.2834 32.333 14.2834C32.9663 14.2834 33.5163 14.1779 33.983 13.9668C34.4496 13.7557 34.8441 13.4612 35.1663 13.0834C35.4885 12.7057 35.7385 12.2557 35.9163 11.7334C36.0941 11.2112 36.2108 10.639 36.2663 10.0168C35.9219 10.5057 35.4719 10.8695 34.9163 11.1084C34.3608 11.3473 33.7663 11.4668 33.133 11.4668C32.6108 11.4668 32.1108 11.3834 31.633 11.2168C31.1552 11.0501 30.733 10.8001 30.3663 10.4668C29.9996 10.1334 29.708 9.72232 29.4913 9.23343C29.2746 8.74454 29.1663 8.17232 29.1663 7.51677ZM33.433 4.68343C33.0774 4.68343 32.7385 4.74176 32.4163 4.85843C32.0941 4.9751 31.808 5.1501 31.558 5.38343C31.308 5.61676 31.1107 5.90565 30.9663 6.2501C30.8219 6.59454 30.7496 6.98899 30.7496 7.43343C30.7496 7.88899 30.8191 8.28621 30.958 8.6251C31.0969 8.96399 31.2885 9.24454 31.533 9.46676C31.7774 9.68899 32.0552 9.85843 32.3663 9.9751C32.6774 10.0918 33.0108 10.1501 33.3663 10.1501C33.733 10.1501 34.0774 10.089 34.3996 9.96676C34.7219 9.84454 35.008 9.66954 35.258 9.44176C35.508 9.21399 35.7052 8.93343 35.8496 8.6001C35.9941 8.26676 36.0663 7.88899 36.0663 7.46676C36.0663 7.06676 36.0024 6.69732 35.8746 6.35843C35.7469 6.01954 35.5663 5.7251 35.333 5.4751C35.0996 5.2251 34.8219 5.03065 34.4996 4.89176C34.1774 4.75288 33.8219 4.68343 33.433 4.68343ZM39.1497 7.51677C39.1497 6.88343 39.2608 6.31121 39.483 5.8001C39.7052 5.28899 40.008 4.85288 40.3913 4.49176C40.7747 4.13065 41.2302 3.8501 41.758 3.6501C42.2858 3.4501 42.8552 3.3501 43.4663 3.3501C44.1552 3.3501 44.7663 3.47232 45.2997 3.71676C45.833 3.96121 46.283 4.31399 46.6497 4.7751C47.0163 5.23621 47.2941 5.8001 47.483 6.46676C47.6719 7.13343 47.7663 7.88343 47.7663 8.71676C47.7663 9.93899 47.6386 10.9862 47.383 11.8584C47.1275 12.7307 46.7663 13.4473 46.2997 14.0084C45.833 14.5695 45.2663 14.9807 44.5997 15.2418C43.933 15.5029 43.183 15.6334 42.3497 15.6334C41.8052 15.6334 41.3302 15.5834 40.9247 15.4834C40.5191 15.3834 40.2052 15.2557 39.983 15.1001V13.5501C40.2497 13.7723 40.5802 13.9501 40.9747 14.0834C41.3691 14.2168 41.8163 14.2834 42.3163 14.2834C42.9497 14.2834 43.4997 14.1779 43.9663 13.9668C44.433 13.7557 44.8274 13.4612 45.1497 13.0834C45.4719 12.7057 45.7219 12.2557 45.8997 11.7334C46.0775 11.2112 46.1941 10.639 46.2497 10.0168C45.9052 10.5057 45.4552 10.8695 44.8997 11.1084C44.3441 11.3473 43.7497 11.4668 43.1163 11.4668C42.5941 11.4668 42.0941 11.3834 41.6163 11.2168C41.1385 11.0501 40.7163 10.8001 40.3497 10.4668C39.983 10.1334 39.6913 9.72232 39.4747 9.23343C39.258 8.74454 39.1497 8.17232 39.1497 7.51677ZM43.4163 4.68343C43.0608 4.68343 42.7219 4.74176 42.3997 4.85843C42.0774 4.9751 41.7913 5.1501 41.5413 5.38343C41.2913 5.61676 41.0941 5.90565 40.9497 6.2501C40.8052 6.59454 40.733 6.98899 40.733 7.43343C40.733 7.88899 40.8024 8.28621 40.9413 8.6251C41.0802 8.96399 41.2719 9.24454 41.5163 9.46676C41.7608 9.68899 42.0385 9.85843 42.3497 9.9751C42.6608 10.0918 42.9941 10.1501 43.3497 10.1501C43.7163 10.1501 44.0608 10.089 44.383 9.96676C44.7052 9.84454 44.9913 9.66954 45.2413 9.44176C45.4913 9.21399 45.6886 8.93343 45.833 8.6001C45.9774 8.26676 46.0497 7.88899 46.0497 7.46676C46.0497 7.06676 45.9858 6.69732 45.858 6.35843C45.7302 6.01954 45.5497 5.7251 45.3163 5.4751C45.083 5.2251 44.8052 5.03065 44.483 4.89176C44.1608 4.75288 43.8052 4.68343 43.4163 4.68343ZM49.133 7.51677C49.133 6.88343 49.2441 6.31121 49.4663 5.8001C49.6886 5.28899 49.9913 4.85288 50.3747 4.49176C50.758 4.13065 51.2136 3.8501 51.7414 3.6501C52.2691 3.4501 52.8386 3.3501 53.4497 3.3501C54.1386 3.3501 54.7497 3.47232 55.283 3.71676C55.8164 3.96121 56.2664 4.31399 56.633 4.7751C56.9997 5.23621 57.2775 5.8001 57.4664 6.46676C57.6553 7.13343 57.7497 7.88343 57.7497 8.71676C57.7497 9.93899 57.6219 10.9862 57.3664 11.8584C57.1108 12.7307 56.7497 13.4473 56.283 14.0084C55.8164 14.5695 55.2497 14.9807 54.583 15.2418C53.9164 15.5029 53.1664 15.6334 52.333 15.6334C51.7886 15.6334 51.3136 15.5834 50.908 15.4834C50.5025 15.3834 50.1886 15.2557 49.9664 15.1001V13.5501C50.233 13.7723 50.5636 13.9501 50.958 14.0834C51.3525 14.2168 51.7997 14.2834 52.2997 14.2834C52.933 14.2834 53.483 14.1779 53.9497 13.9668C54.4164 13.7557 54.8108 13.4612 55.133 13.0834C55.4552 12.7057 55.7053 12.2557 55.883 11.7334C56.0608 11.2112 56.1775 10.639 56.233 10.0168C55.8886 10.5057 55.4386 10.8695 54.883 11.1084C54.3275 11.3473 53.733 11.4668 53.0997 11.4668C52.5775 11.4668 52.0775 11.3834 51.5997 11.2168C51.1219 11.0501 50.6997 10.8001 50.333 10.4668C49.9663 10.1334 49.6747 9.72232 49.458 9.23343C49.2413 8.74454 49.133 8.17232 49.133 7.51677ZM53.3997 4.68343C53.0441 4.68343 52.7052 4.74176 52.383 4.85843C52.0608 4.9751 51.7747 5.1501 51.5247 5.38343C51.2747 5.61676 51.0775 5.90565 50.933 6.2501C50.7886 6.59454 50.7164 6.98899 50.7164 7.43343C50.7164 7.88899 50.7858 8.28621 50.9247 8.6251C51.0636 8.96399 51.2552 9.24454 51.4997 9.46676C51.7441 9.68899 52.0219 9.85843 52.333 9.9751C52.6441 10.0918 52.9775 10.1501 53.333 10.1501C53.6997 10.1501 54.0441 10.089 54.3664 9.96676C54.6886 9.84454 54.9747 9.66954 55.2247 9.44176C55.4747 9.21399 55.6719 8.93343 55.8164 8.6001C55.9608 8.26676 56.033 7.88899 56.033 7.46676C56.033 7.06676 55.9691 6.69732 55.8414 6.35843C55.7136 6.01954 55.533 5.7251 55.2997 5.4751C55.0664 5.2251 54.7886 5.03065 54.4664 4.89176C54.1441 4.75288 53.7886 4.68343 53.3997 4.68343ZM62.233 3.53343H65.3497C65.9719 3.53343 66.5442 3.60565 67.0664 3.7501C67.5886 3.89454 68.0358 4.10288 68.4081 4.3751C68.7803 4.64732 69.072 4.98899 69.2831 5.4001C69.4942 5.81121 69.5997 6.28343 69.5997 6.81677C69.5997 7.37232 69.4858 7.85288 69.2581 8.25843C69.0303 8.66399 68.7192 9.0001 68.3247 9.26677C67.9303 9.53343 67.4664 9.73343 66.9331 9.86677C66.3997 10.0001 65.8275 10.0668 65.2164 10.0668H63.8164V11.4668H67.7164V12.6334H63.8164V15.4668H62.233V12.6334H60.6497V11.4668H62.233V10.0668H60.6497V8.9001H62.233V3.53343ZM63.8164 8.9001H65.2831C66.0942 8.9001 66.7553 8.72232 67.2664 8.36677C67.7775 8.01121 68.0331 7.49454 68.0331 6.81677C68.0331 6.18343 67.8053 5.70288 67.3497 5.3751C66.8942 5.04732 66.2497 4.88343 65.4164 4.88343H63.8164V8.9001Z" fill="white" fill-opacity="0.98"/>
<path d="M82.9497 15.4666H79.583V6.81664H82.983C84.0163 6.81664 84.8025 6.99719 85.3414 7.3583C85.8802 7.71942 86.1497 8.2833 86.1497 9.04997C86.1497 9.54997 86.0191 9.95553 85.758 10.2666C85.4969 10.5777 85.1275 10.8 84.6497 10.9333C85.883 11.1333 86.4997 11.8166 86.4997 12.9833C86.4997 13.5722 86.3469 14.05 86.0414 14.4166C85.7358 14.7833 85.3164 15.05 84.783 15.2166C84.2497 15.3833 83.6386 15.4666 82.9497 15.4666ZM82.9663 8.06664H81.0497V10.4166H82.8497C83.4052 10.4166 83.8525 10.3166 84.1914 10.1166C84.5302 9.91664 84.6997 9.62775 84.6997 9.24997C84.6997 8.79442 84.5497 8.4833 84.2497 8.31664C83.9497 8.14997 83.5219 8.06664 82.9663 8.06664ZM82.933 11.5833H81.0497V14.2166H82.933C83.5552 14.2166 84.0552 14.125 84.433 13.9416C84.8108 13.7583 84.9997 13.4222 84.9997 12.9333C84.9997 12.4444 84.8275 12.0972 84.483 11.8916C84.1386 11.6861 83.6219 11.5833 82.933 11.5833ZM97.4164 15.6333C96.2386 15.6333 95.208 15.3889 94.3247 14.9C93.4414 14.4111 92.7553 13.7083 92.2664 12.7916C91.7775 11.875 91.533 10.7777 91.533 9.49997C91.533 7.57775 92.0386 6.07497 93.0497 4.99164C94.0608 3.9083 95.5053 3.36664 97.3831 3.36664C98.0831 3.36664 98.7525 3.44164 99.3914 3.59164C100.03 3.74164 100.572 3.95553 101.016 4.2333V5.7333C100.539 5.4333 99.9803 5.19997 99.3414 5.0333C98.7025 4.86664 98.0442 4.7833 97.3664 4.7833C95.9664 4.7833 94.9275 5.17775 94.2497 5.96664C93.5719 6.75553 93.233 7.9333 93.233 9.49997C93.233 11.0777 93.5997 12.2583 94.333 13.0416C95.0664 13.825 96.1386 14.2166 97.5497 14.2166C98.8831 14.2166 100.039 13.85 101.016 13.1166V14.6166C100.628 14.9277 100.111 15.175 99.4664 15.3583C98.8219 15.5416 98.1386 15.6333 97.4164 15.6333ZM104.683 15.4666H103.216V6.81664H110.15V15.4666H108.683V8.06664H104.683V15.4666ZM111.85 15.4833V14.0333C112.516 14.1333 112.972 13.7166 113.216 12.7833C113.305 12.45 113.378 12.0305 113.433 11.525C113.489 11.0194 113.528 10.3861 113.55 9.62497C113.572 8.86386 113.583 7.92775 113.583 6.81664H119.566V15.4666H118.083V8.06664H114.966C114.955 9.38886 114.919 10.4472 114.858 11.2416C114.797 12.0361 114.7 12.7 114.566 13.2333C114.355 14.0666 114.033 14.6611 113.6 15.0166C113.166 15.3722 112.583 15.5277 111.85 15.4833ZM121.95 6.81664H123.416V13.4333L127.866 6.81664H129.35V15.4666H127.883V8.86664L123.45 15.4666H121.95V6.81664ZM131.05 8.06664V6.81664H138V8.06664H135.233V15.4666H133.766V8.06664H131.05Z" fill="black" fill-opacity="0.86"/>
</svg>
